<svg width="50" height="50" viewBox="0 0 50 50" fill="none" xmlns="http://www.w3.org/2000/svg">
<g clip-path="url(#clip0_1_2)">
<path d="M13 37.162C13 36.2935 13 14.5469 13 13.9046ZM13 37.162C13 38.0306 13.5328 38.4166 13.9768 38.7061C14.4208 38.9956 15.3977 39.1886 16.2857 38.7061C17.1737 38.2236 34.9344 27.7047 35.2896 27.3187C35.6448 26.9326 36 26.6431 36 25.5816C36 24.52 35.6448 24.134 35.2896 23.8445C34.9344 23.555 16.3745 12.4571 16.0193 12.2641C15.6641 12.0711 14.7761 11.7815 13.9768 12.2641C13.1776 12.7466 13 13.2623 13 13.9046M13 37.162V13.9046ZM15.5753 35.811V15.2557L32.7143 25.5816L15.5753 35.811Z" fill="black"/>
<path d="M13 37.162C13 36.2935 13 14.5469 13 13.9046M13 37.162C13 38.0306 13.5328 38.4166 13.9768 38.7061C14.4208 38.9956 15.3977 39.1886 16.2857 38.7061C17.1737 38.2236 34.9344 27.7047 35.2896 27.3187C35.6448 26.9326 36 26.6431 36 25.5816C36 24.52 35.6448 24.134 35.2896 23.8445C34.9344 23.555 16.3745 12.4571 16.0193 12.2641C15.6641 12.0711 14.7761 11.7815 13.9768 12.2641C13.1776 12.7466 13 13.2623 13 13.9046M13 37.162V13.9046M15.5753 35.811V15.2557L32.7143 25.5816L15.5753 35.811Z" stroke="black"/>
</g>
<defs>
<clipPath id="clip0_1_2">
<rect width="50" height="50" fill="white"/>
</clipPath>
</defs>
</svg>
