<svg width="56" height="56" viewBox="0 0 56 56" fill="none" xmlns="http://www.w3.org/2000/svg">
<path d="M20.6058 8.99499C22.4258 5.94998 26.2933 4.72498 29.5745 6.26498L30.2045 6.59748C33.2495 8.42623 34.4745 12.2937 32.9345 15.575L31.7008 18.2H41.2995L41.947 18.235C45.1233 18.5587 47.5995 21.245 47.5995 24.5C47.5995 25.655 47.2845 26.7225 46.742 27.65C47.2758 28.5775 47.5908 29.645 47.5995 30.8C47.5995 32.4012 46.9958 33.845 46.0245 34.9562C46.1383 35.42 46.1995 35.9012 46.1995 36.4C46.1995 38.5962 45.0708 40.5125 43.382 41.6412C43.2158 44.7475 40.8095 47.2587 37.747 47.565L37.0995 47.6H27.9908C26.4158 47.6 24.8495 47.3025 23.3883 46.7337L22.767 46.4712L22.7058 46.445L22.1283 46.165L22.067 46.1387L20.9995 45.57C19.9233 45.0012 18.9608 44.2837 18.1208 43.4613C17.762 45.815 15.732 47.6087 13.282 47.6087H10.482C7.77828 47.6087 5.58203 45.4125 5.58203 42.7087L5.59953 23.1C5.59953 20.3962 7.79578 18.2 10.4995 18.2H13.2995C14.2445 18.2 15.1283 18.4712 15.8808 18.9437L20.2645 9.62499L20.317 9.51999L20.5533 9.08249L20.6058 9.00374V8.99499ZM10.4995 22.4C10.1145 22.4 9.79953 22.715 9.79953 23.1V42.7C9.79953 43.085 10.1145 43.4 10.4995 43.4H13.2995C13.6845 43.4 13.9995 43.085 13.9995 42.7V23.1C13.9995 22.715 13.6845 22.4 13.2995 22.4H10.4995ZM27.7895 10.0625C26.4945 9.45873 24.9633 9.92249 24.2283 11.1125L24.0358 11.4625L19.0658 22.0412C18.7595 22.6975 18.5845 23.3975 18.5408 24.115L18.532 24.4825V34.3612L18.5495 35.0525C18.7595 37.9137 20.422 40.4862 22.9858 41.8512L23.992 42.385L24.5433 42.6562C25.6283 43.1462 26.8008 43.4 27.9908 43.4H37.0995L37.3095 43.3912C38.3683 43.2862 39.1995 42.385 39.1995 41.3L39.182 41.0725C39.1733 40.9937 39.1645 40.9237 39.147 40.845C38.9108 39.7862 39.5233 38.7275 40.547 38.395C41.3958 38.1237 41.9995 37.3275 41.9995 36.4C41.9995 36.0237 41.9033 35.6825 41.7283 35.3675C41.177 34.3962 41.4833 33.1625 42.4283 32.5675C43.0233 32.1912 43.4083 31.535 43.4083 30.8C43.4083 30.1787 43.137 29.6187 42.6908 29.225C42.2358 28.8225 41.9733 28.2537 41.9733 27.65C41.9733 27.0462 42.2358 26.4775 42.6908 26.075C43.137 25.6812 43.4083 25.1212 43.4083 24.5L43.3995 24.29C43.3033 23.3012 42.5158 22.5137 41.527 22.4175L41.317 22.4087H28.4108C27.6933 22.4087 27.0283 22.0412 26.6433 21.4375C26.2583 20.8337 26.2058 20.0637 26.512 19.4162L29.137 13.79C29.7495 12.4775 29.2595 10.9287 28.0433 10.2025L27.7895 10.0625Z" fill="black"/>
</svg>
