<svg width="56" height="56" viewBox="0 0 56 56" fill="none" xmlns="http://www.w3.org/2000/svg">
<path d="M39.1996 8.40002C41.5183 8.40002 43.3996 10.2813 43.3996 12.6C43.3996 13.1513 43.2858 13.6675 43.1021 14.1488C44.8871 14.63 46.1996 16.2575 46.1996 18.2C46.1996 18.9963 45.9721 19.74 45.5871 20.3788C47.5296 20.7463 48.9996 22.4525 48.9996 24.5C48.9996 26.2238 47.9583 27.7025 46.4708 28.35C47.9583 28.9975 48.9996 30.4763 48.9996 32.2C48.9996 34.5188 47.1183 36.4 44.7996 36.4H30.7996L33.2671 42.56C33.4859 43.1113 33.5996 43.7063 33.5996 44.3013V44.6688C33.5996 47.0575 31.6658 48.9913 29.2771 48.9913C27.6409 48.9913 26.1446 48.0638 25.4096 46.6025L20.4834 36.7763C19.8971 35.6125 19.5996 34.3263 19.5996 33.0225V16.695C19.5996 14.9975 20.3784 13.3875 21.6996 12.32L22.7671 11.4713C25.2521 9.48503 28.3321 8.40002 31.5084 8.40002H39.1996ZM12.5996 14C14.1484 14 15.3996 15.2513 15.3996 16.8V39.2C15.3996 40.7488 14.1484 42 12.5996 42H8.39961C6.85086 42 5.59961 40.7488 5.59961 39.2V16.8C5.59961 15.2513 6.85086 14 8.39961 14H12.5996Z" fill="black"/>
</svg>
