<svg width="50" height="50" viewBox="0 0 50 50" fill="none" xmlns="http://www.w3.org/2000/svg">
<path d="M25 10C33.2843 10 40 16.7157 40 25C40 33.2843 33.2843 40 25 40C16.7157 40 10 33.2843 10 25C10 16.7157 16.7157 10 25 10ZM25 13C18.3726 13 13 18.3726 13 25C13 31.6274 18.3726 37 25 37C31.6274 37 37 31.6274 37 25C37 18.3726 31.6274 13 25 13ZM25 15C30.5228 15 35 19.4772 35 25C35 30.5228 30.5228 35 25 35C19.4772 35 15 30.5228 15 25C15 19.4772 19.4772 15 25 15ZM25 19.5C24.1716 19.5 23.5 20.1716 23.5 21V29C23.5 29.8284 24.1716 30.5 25 30.5C25.8284 30.5 26.5 29.8284 26.5 29V21C26.5 20.1716 25.8284 19.5 25 19.5Z" fill="black"/>
</svg>
