<svg width="50" height="50" viewBox="0 0 50 50" fill="none" xmlns="http://www.w3.org/2000/svg">
<path d="M44.9847 21.5C45 19.5 44.9694 20 44.9847 18.5C45 17 44.8441 16.8047 44.9847 15.7812C45.1253 14.7578 44.3988 13.8125 43.3753 13.6719C42.1331 13.5078 40.7816 12.7891 39.3363 11.7031C36.3363 9.4375 32.266 9.4375 29.2581 11.7031C27.3831 13.1172 26.0785 13.7578 25.0003 13.7578C23.9222 13.7578 22.6175 13.1172 20.7425 11.7031C17.7425 9.4375 13.6722 9.4375 10.6644 11.7031C9.21908 12.7891 7.86752 13.5078 6.62533 13.6719C5.60189 13.8125 4.87533 14.75 5.01596 15.7812C5.15658 16.8125 5.01563 18.5 5.01593 21C5.01595 27 5.01581 38.5 5.01563 42C8 42 43.3753 42 44.9847 42C45 37 44.9847 33 44.9847 30C44.9847 27.5 45 26 44.9847 23.5C44.9746 21.8473 44.9722 23.1326 44.9847 21.5Z" fill="black"/>
</svg>
