<svg width="50" height="50" viewBox="0 0 50 50" fill="none" xmlns="http://www.w3.org/2000/svg">
<path d="M25 10C25.8613 10 26.6522 10.5063 27.0623 11.3125L39.7176 36.3125C40.1101 37.0875 40.0925 38.025 39.6707 38.7812C39.2489 39.5375 38.4813 40 37.6552 40H12.3448C11.5187 40 10.7511 39.5375 10.3293 38.7812C9.90747 38.025 9.88989 37.0875 10.2824 36.3125L22.9377 11.3125C23.3478 10.5063 24.1387 10 25 10ZM25 32C23.963 32 23.1252 32.8937 23.1252 34C23.1252 35.1063 23.963 36 25 36C26.037 36 26.8748 35.1063 26.8748 34C26.8748 32.8937 26.037 32 25 32ZM25 20C23.9337 20 23.0841 20.9688 23.1603 22.1063L23.5939 28.6063C23.6466 29.3875 24.2618 30 24.9941 30C25.7324 30 26.3417 29.3938 26.3944 28.6063L26.828 22.1063C26.9041 20.9688 26.0605 20 24.9883 20H25Z" fill="black"/>
</svg>
