<svg width="50" height="50" viewBox="0 0 50 50" fill="none" xmlns="http://www.w3.org/2000/svg">
<path d="M30.6834 22.2906C31.4096 22.0942 32.1715 22.4394 32.4989 23.112L33.606 25.3501C34.2191 25.4334 34.8203 25.6001 35.3857 25.8322L37.4691 24.4453C38.0941 24.0287 38.9214 24.112 39.4512 24.6418L40.594 25.7846C41.1238 26.3144 41.2071 27.1477 40.7905 27.7667L39.4036 29.8441C39.5167 30.1239 39.6179 30.4155 39.7012 30.7191C39.7845 31.0227 39.8381 31.3203 39.8798 31.6239L42.1238 32.731C42.7964 33.0643 43.1416 33.8262 42.9452 34.5465L42.5286 36.106C42.3321 36.8262 41.6595 37.3143 40.9095 37.2667L38.4095 37.106C38.0345 37.5881 37.6 38.0345 37.106 38.4155L37.2667 40.9095C37.3143 41.6595 36.8262 42.3381 36.106 42.5286L34.5465 42.9452C33.8203 43.1417 33.0643 42.7964 32.731 42.1238L31.6239 39.8857C31.0108 39.8024 30.4096 39.6357 29.8441 39.4036L27.7608 40.7905C27.1358 41.2071 26.3084 41.1238 25.7787 40.594L24.6358 39.4512C24.106 38.9214 24.0227 38.0941 24.4394 37.4691L25.8263 35.3857C25.7132 35.106 25.612 34.8143 25.5287 34.5107C25.4453 34.2072 25.3917 33.9036 25.3501 33.606L23.106 32.4989C22.4334 32.1655 22.0941 31.4036 22.2846 30.6834L22.7013 29.1239C22.8977 28.4036 23.5703 27.9155 24.3203 27.9632L26.8144 28.1239C27.1894 27.6417 27.6239 27.1953 28.1179 26.8144L27.9572 24.3263C27.9096 23.5763 28.3977 22.8977 29.1179 22.7072L30.6774 22.2906H30.6834ZM32.6179 29.9989C31.1715 29.9989 29.9989 31.1715 30.0048 32.6239C30.0048 34.0703 31.1774 35.2369 32.6239 35.2369C34.0703 35.2369 35.2429 34.0643 35.2429 32.6179C35.2369 31.1655 34.0643 29.9989 32.6179 29.9989ZM19.3144 7.05257L20.8739 7.46923C21.5942 7.66566 22.0822 8.34423 22.0346 9.08827L21.8739 11.5764C22.368 11.9573 22.8025 12.3978 23.1775 12.8859L25.6775 12.7252C26.4215 12.6775 27.1001 13.1656 27.2965 13.8859L27.7132 15.4454C27.9036 16.1656 27.5644 16.9275 26.8917 17.2608L24.6477 18.368C24.606 18.6716 24.5465 18.9751 24.4691 19.2727C24.3918 19.5704 24.2846 19.868 24.1715 20.1477L25.5584 22.2311C25.9751 22.8561 25.8917 23.6834 25.362 24.2132L24.2191 25.356C23.6894 25.8858 22.862 25.9691 22.237 25.5525L20.1537 24.1656C19.5882 24.3977 18.987 24.5644 18.3739 24.6477L17.2668 26.8858C16.9335 27.5584 16.1716 27.8977 15.4513 27.7072L13.8918 27.2906C13.1656 27.0941 12.6835 26.4156 12.7311 25.6715L12.8918 23.1775C12.3978 22.7965 11.9633 22.3561 11.5883 21.868L9.08827 22.0287C8.34423 22.0763 7.66566 21.5882 7.46923 20.868L7.05257 19.3085C6.86209 18.5882 7.20138 17.8263 7.87399 17.493L10.118 16.3858C10.1597 16.0823 10.2192 15.7847 10.2966 15.4811C10.3799 15.1775 10.4752 14.8859 10.5942 14.6061L9.20732 12.5287C8.79065 11.9037 8.87399 11.0764 9.40374 10.5466L10.5466 9.40374C11.0764 8.87399 11.9037 8.79065 12.5287 9.20732L14.612 10.5942C15.1775 10.3621 15.7787 10.1954 16.3918 10.1121L17.4989 7.87399C17.8323 7.20138 18.5882 6.86209 19.3144 7.05257ZM17.3799 14.7609C15.9335 14.7609 14.7609 15.9335 14.7609 17.3799C14.7609 18.8263 15.9335 19.9989 17.3799 19.9989C18.8263 19.9989 19.9989 18.8263 19.9989 17.3799C19.9989 15.9335 18.8263 14.7609 17.3799 14.7609Z" fill="black"/>
</svg>
