<svg width="50" height="50" viewBox="0 0 50 50" fill="none" xmlns="http://www.w3.org/2000/svg">
<path d="M13.1328 41.4922L12.2578 42.1953C12.0078 42.3906 11.7031 42.5 11.3906 42.5C10.625 42.5 10 41.875 10 41.1094V20C10 11.7188 16.7188 5 25 5C33.2812 5 40 11.7188 40 20V41.1094C40 41.875 39.375 42.5 38.6094 42.5C38.2969 42.5 37.9922 42.3906 37.7422 42.1953L36.8672 41.4922C35.8203 40.6562 34.3047 40.7891 33.4219 41.7969L31.0391 44.5312C30.7812 44.8281 30.3984 45 30 45C29.6016 45 29.2266 44.8281 28.9609 44.5312L26.8828 42.1484C25.8906 41.0078 24.1172 41.0078 23.1172 42.1484L21.0391 44.5312C20.7812 44.8281 20.3984 45 20 45C19.6016 45 19.2266 44.8281 18.9609 44.5312L16.5781 41.7969C15.6953 40.7891 14.1797 40.6562 13.1328 41.4922ZM22.5 20C22.5 18.6172 21.3828 17.5 20 17.5C18.6172 17.5 17.5 18.6172 17.5 20C17.5 21.3828 18.6172 22.5 20 22.5C21.3828 22.5 22.5 21.3828 22.5 20ZM30 22.5C31.3828 22.5 32.5 21.3828 32.5 20C32.5 18.6172 31.3828 17.5 30 17.5C28.6172 17.5 27.5 18.6172 27.5 20C27.5 21.3828 28.6172 22.5 30 22.5Z" fill="black"/>
</svg>
