<svg width="50" height="50" viewBox="0 0 50 50" fill="none" xmlns="http://www.w3.org/2000/svg">
<path d="M35.7139 10C38.0777 10 40 11.9223 40 14.2861V35.7139C40 38.0777 38.0777 40 35.7139 40H14.2861C11.9223 40 10 38.0777 10 35.7139V14.2861C10 11.9223 11.9223 10 14.2861 10H35.7139ZM24.2559 30.1475C23.6877 30.1475 23.2013 30.3464 22.7979 30.7441C22.4003 31.1418 22.2044 31.6192 22.21 32.1758C22.2043 32.7382 22.4003 33.2216 22.7979 33.625C23.2013 34.0227 23.6877 34.2217 24.2559 34.2217C24.6194 34.2217 24.955 34.131 25.2617 33.9492C25.5685 33.7617 25.8155 33.5138 26.0029 33.207C26.196 32.8946 26.2951 32.5507 26.3008 32.1758C26.295 31.6191 26.0877 31.1418 25.6787 30.7441C25.2697 30.3466 24.7955 30.1475 24.2559 30.1475ZM24.6055 16.3066C23.5772 16.3066 22.6364 16.4911 21.7842 16.8604C20.932 17.2239 20.2475 17.7783 19.7305 18.5225C19.2135 19.261 18.9406 20.1987 18.9121 21.335H22.3896C22.4067 20.8692 22.5203 20.4804 22.7305 20.168C22.9407 19.8498 23.2105 19.6112 23.54 19.4521C23.8695 19.2874 24.2187 19.2041 24.5879 19.2041C24.9686 19.2041 25.3154 19.2843 25.6279 19.4434C25.946 19.6024 26.1992 19.8296 26.3867 20.125C26.5742 20.4204 26.668 20.7643 26.668 21.1562C26.668 21.5255 26.5857 21.861 26.4209 22.1621C26.2561 22.4575 26.0342 22.7274 25.7559 22.9717C25.4775 23.216 25.1618 23.4514 24.8096 23.6787C24.338 23.9742 23.9348 24.3043 23.5996 24.668C23.2644 25.0316 23.0082 25.5088 22.832 26.0996C22.6616 26.6905 22.574 27.4834 22.5684 28.4775V28.7666H25.7979V28.4775C25.8035 27.9208 25.8754 27.4519 26.0117 27.0713C26.1537 26.6907 26.3664 26.3552 26.6504 26.0654C26.9402 25.7757 27.3099 25.4975 27.7588 25.2305C28.2927 24.9124 28.7555 24.557 29.1475 24.165C29.5395 23.7673 29.8437 23.3121 30.0596 22.8008C30.2811 22.2838 30.3916 21.693 30.3916 21.0283C30.3916 20.0341 30.1446 19.185 29.6504 18.4805C29.1561 17.776 28.4747 17.2385 27.6055 16.8691C26.7362 16.4942 25.736 16.3067 24.6055 16.3066Z" fill="black"/>
</svg>
